# xmcd
#
# Track frame offsets:
#	150
#	7706
#	32001
#	53316
#	77875
#	105548
#	133613
#	148656
#
# Disc length: 2156 seconds
#
# Revision: 0
# Processed by: cddbd v1.5.2PL0 Copyright (c) Steve Scherf et al.
# Submitted via: EasyCDDAExtractor 16.0.6.1
#
DISCID=56086a08
DTITLE=Dolly Parton  - 2005-09-01 - Molson Amphitheatre,Toronto - Disc 1
DYEAR=1900
DGENRE=
TTITLE0=Intro Music - 01
TTITLE1=Those Were The Days - 02
TTITLE2=9 To 5 - 03
TTITLE3=Jolene - 04
TTITLE4=Crimson and Clover - 05
TTITLE5=Me and Boby McGee - 06
TTITLE6=My Tennessee Home - 07
TTITLE7=Coat Of Many Colors - 08
EXTD=
EXTT0=
EXTT1=
EXTT2=
EXTT3=
EXTT4=
EXTT5=
EXTT6=
EXTT7=
PLAYORDER=
